<?xml version="1.0" standalone="no"?>
<!DOCTYPE svg PUBLIC "-//W3C//DTD SVG 20010904//EN"
 "http://www.w3.org/TR/2001/REC-SVG-20010904/DTD/svg10.dtd">
<svg version="1.0" xmlns="http://www.w3.org/2000/svg"
 width="250.000000pt" height="250.000000pt" viewBox="0 0 250.000000 250.000000"
 preserveAspectRatio="xMidYMid meet">
<metadata>
Created by potrace 1.14, written by Peter Selinger 2001-2017
</metadata>
<g transform="translate(0.000000,250.000000) scale(0.100000,-0.100000)"
fill="#000000" stroke="none">
<path d="M0 1250 l0 -1250 1250 0 1250 0 0 479 0 479 -30 -11 c-38 -14 -47 -4
-21 24 15 16 21 36 21 66 0 30 5 45 15 49 13 5 15 94 15 710 l0 704 -1250 0
-1250 0 0 -1250z m1650 1088 c17 -23 33 -52 36 -64 4 -17 20 -25 72 -39 108
-30 198 -80 242 -137 64 -80 70 -116 70 -404 0 -299 -7 -330 -91 -414 -55 -55
-100 -82 -199 -116 -36 -13 -65 -28 -64 -34 1 -5 2 -36 3 -68 1 -55 5 -65 64
-148 114 -161 393 -559 401 -571 6 -10 -49 -13 -262 -13 l-269 0 -252 379
c-172 257 -260 381 -274 385 -12 3 -61 6 -109 6 l-88 0 0 -385 0 -385 -235 0
-235 0 0 976 0 976 555 -4 555 -3 0 23 c0 26 29 82 42 82 4 0 22 -19 38 -42z
m319 -1187 c22 -42 51 -151 51 -188 0 -19 -4 -24 -16 -19 -9 3 -19 6 -24 6
-20 0 -40 34 -40 66 0 19 -9 52 -20 74 -23 45 -23 50 -10 84 12 34 35 25 59
-23z m131 -256 c0 -21 -27 -30 -45 -15 -23 19 -18 30 15 30 20 0 30 -5 30 -15z"/>
<path d="M930 1671 l0 -271 164 0 c193 0 222 4 231 34 6 21 6 21 18 -3 10 -22
15 -23 83 -19 79 5 124 25 158 71 19 25 21 44 24 180 3 180 -5 206 -78 247
-45 25 -48 25 -322 28 l-278 3 0 -270z"/>
</g>
</svg>
